<?xml version="1.0" encoding="utf-8"?>
<!-- Generator: Adobe Illustrator 26.4.0, SVG Export Plug-In . SVG Version: 6.00 Build 0)  -->
<svg version="1.1" id="try" xmlns="http://www.w3.org/2000/svg" xmlns:xlink="http://www.w3.org/1999/xlink" x="0px" y="0px"
	 viewBox="0 0 236 236" style="enable-background:new 0 0 236 236;" xml:space="preserve">

	 <style type="text/css">
	 	.st0{fill:#FF0000;}
	 </style>

	<defs>
		<filter id="inset-shadow" x="-50%" y="-50%" width="200%" height="200%">
			<feGaussianBlur in="SourceAlpha" stdDeviation="2" result="blur"/>
			<feOffset in="blur" dx="0" dy="0" result="offsetBlur"/>
			<feComposite in="SourceGraphic" in2="offsetBlur" operator="out" result="shadow"/>
			<feMerge>
				<feMergeNode in="shadow"/>
				<feMergeNode in="SourceGraphic"/>
			</feMerge>
		</filter>
	</defs>

	<path filter="url(#inset-shadow)" class="st0" d="M147.5,66.8c0.7-0.2,1.3-0.4,2-0.5l58.7-7.6c60.2-7.8,0,0-33,80.9c-26.7,65.5-52.6,70.8-61.5,70.4
	c-1.8-0.1-3.6-0.8-5-2l-70.1-60.7c-62.3-53.9-8.8-67.9,6.5-70.6c2.4-0.4,4.5-1.9,5.7-4.1c7.9-14,39-64.4,64.8-34.7
	C139.7,65.8,146,67.2,147.5,66.8z"/>
</svg>
